<mxfile host="drawio-plugin" modified="2022-07-08T02:46:32.861Z" agent="5.0 (Windows NT 6.2; Win64; x64) AppleWebKit/537.36 (KHTML, like Gecko) Chrome/89.0.4389.114 Safari/537.36" etag="aGwPwLWAoXCUhOaltW4P" version="15.5.4" type="embed"><diagram id="23iRSUPoRavnBvh4doch" name="Page-1"><mxGraphModel dx="1119" dy="567" grid="1" gridSize="10" guides="1" tooltips="1" connect="1" arrows="1" fold="1" page="1" pageScale="1" pageWidth="827" pageHeight="1169" math="0" shadow="0"><root><mxCell id="0"/><mxCell id="1" parent="0"/><mxCell id="3" value="" style="rounded=1;whiteSpace=wrap;html=1;" vertex="1" parent="1"><mxGeometry x="150" y="80" width="206" height="450" as="geometry"/></mxCell><mxCell id="4" value="store" style="text;html=1;resizable=0;autosize=1;align=center;verticalAlign=middle;points=[];fillColor=none;strokeColor=none;rounded=0;" vertex="1" parent="1"><mxGeometry x="233" y="90" width="40" height="20" as="geometry"/></mxCell><mxCell id="5" value="sDataList" style="rounded=0;whiteSpace=wrap;html=1;" vertex="1" parent="1"><mxGeometry x="184.5" y="120" width="137" height="160" as="geometry"/></mxCell><mxCell id="6" value="formStore&lt;br&gt;" style="rounded=1;whiteSpace=wrap;html=1;" vertex="1" parent="1"><mxGeometry x="600" y="480" width="120" height="60" as="geometry"/></mxCell><mxCell id="7" value="+fnAdd&lt;br&gt;&lt;br&gt;+fnDelete&lt;br&gt;&lt;br&gt;+fnEdit&lt;br&gt;&lt;br&gt;&lt;br&gt;&lt;br&gt;&lt;br&gt;&lt;br&gt;+fnLoad&lt;br&gt;+fnInit" style="rounded=0;whiteSpace=wrap;html=1;" vertex="1" parent="1"><mxGeometry x="189.5" y="300" width="127" height="210" as="geometry"/></mxCell><mxCell id="8" value="" style="endArrow=classic;html=1;rounded=0;exitX=0.012;exitY=0.862;exitDx=0;exitDy=0;exitPerimeter=0;entryX=0;entryY=0.25;entryDx=0;entryDy=0;" edge="1" parent="1" source="7" target="5"><mxGeometry width="50" height="50" relative="1" as="geometry"><mxPoint x="185" y="480" as="sourcePoint"/><mxPoint x="80" y="200" as="targetPoint"/><Array as="points"><mxPoint x="20" y="481"/><mxPoint x="20" y="160"/></Array></mxGeometry></mxCell><mxCell id="9" value="upDate" style="text;html=1;resizable=0;autosize=1;align=center;verticalAlign=middle;points=[];fillColor=none;strokeColor=none;rounded=0;" vertex="1" parent="1"><mxGeometry x="15" y="300" width="50" height="20" as="geometry"/></mxCell><mxCell id="10" value="pageConfig" style="rounded=1;whiteSpace=wrap;html=1;" vertex="1" parent="1"><mxGeometry x="600" y="360" width="120" height="60" as="geometry"/></mxCell><mxCell id="12" value="" style="endArrow=none;html=1;rounded=0;entryX=0;entryY=0.75;entryDx=0;entryDy=0;exitX=1;exitY=0.75;exitDx=0;exitDy=0;" edge="1" parent="1" source="7" target="7"><mxGeometry width="50" height="50" relative="1" as="geometry"><mxPoint x="380" y="320" as="sourcePoint"/><mxPoint x="430" y="270" as="targetPoint"/></mxGeometry></mxCell><mxCell id="13" value="" style="endArrow=classic;html=1;rounded=0;entryX=0;entryY=0.5;entryDx=0;entryDy=0;exitX=0.996;exitY=0.867;exitDx=0;exitDy=0;exitPerimeter=0;" edge="1" parent="1" source="7" target="10"><mxGeometry width="50" height="50" relative="1" as="geometry"><mxPoint x="510" y="460" as="sourcePoint"/><mxPoint x="430" y="260" as="targetPoint"/><Array as="points"><mxPoint x="480" y="480"/><mxPoint x="480" y="390"/></Array></mxGeometry></mxCell><mxCell id="14" value="" style="endArrow=classic;html=1;rounded=0;entryX=0;entryY=0.5;entryDx=0;entryDy=0;" edge="1" parent="1" target="6"><mxGeometry width="50" height="50" relative="1" as="geometry"><mxPoint x="310" y="510" as="sourcePoint"/><mxPoint x="610" y="400" as="targetPoint"/></mxGeometry></mxCell><mxCell id="16" value="" style="endArrow=none;dashed=1;html=1;rounded=0;" edge="1" parent="1"><mxGeometry width="50" height="50" relative="1" as="geometry"><mxPoint x="400" y="530" as="sourcePoint"/><mxPoint x="400" y="80" as="targetPoint"/></mxGeometry></mxCell><mxCell id="17" value="控制反转" style="text;html=1;resizable=0;autosize=1;align=center;verticalAlign=middle;points=[];fillColor=none;strokeColor=none;rounded=0;" vertex="1" parent="1"><mxGeometry x="370" y="60" width="60" height="20" as="geometry"/></mxCell></root></mxGraphModel></diagram></mxfile>